IKResults
version=1
nRows=10
nColumns=40
inDegrees=yes

Units are S.I. units (second, meters, Newtons, ...)
Angles are in degrees.

endheader
time	pelvis_tilt	pelvis_list	pelvis_rotation	pelvis_tx	pelvis_ty	pelvis_tz	hip_flexion_r	hip_adduction_r	hip_rotation_r	knee_angle_r	knee_angle_r_beta	ankle_angle_r	subtalar_angle_r	mtp_angle_r	hip_flexion_l	hip_adduction_l	hip_rotation_l	knee_angle_l	knee_angle_l_beta	ankle_angle_l	subtalar_angle_l	mtp_angle_l	lumbar_extension	lumbar_bending	lumbar_rotation	arm_flex_r	arm_add_r	arm_rot_r	elbow_flex_r	pro_sup_r	wrist_flex_r	wrist_dev_r	arm_flex_l	arm_add_l	arm_rot_l	elbow_flex_l	pro_sup_l	wrist_flex_l	wrist_dev_l
      0.19000000	     13.98363364	      1.85420113	     -9.93791826	     -0.30447388	      0.91909310	      1.46243826	    -25.93045294	    -10.61957887	     -1.97930640	    -42.82263017	     -0.74739589	    -19.52989539	    -11.32951221	     13.62491490	     11.60240398	     -0.35421088	     17.40411798	    -27.12645705	     -0.47344599	      2.61955784	     10.08273440	     -5.33224294	    -21.01978642	     -7.32160124	     11.68649498	     -3.54042878	    -17.29028317	     -2.72844525	     51.86663642	     89.95437384	      0.00000000	      0.00000000	    -14.30993606	     10.91457019	     18.43045266	     11.47833329	     89.95437384	      0.00000000	      0.00000000
      0.20000000	     14.14306401	      2.22219387	     -9.76550967	     -0.28746578	      0.92120526	      1.46076632	    -24.50579664	    -11.16854247	     -2.20571117	    -45.66996361	     -0.79709123	    -24.71354445	    -12.79550028	     14.57355473	     10.52290406	     -1.11474123	     17.40557926	    -27.33357793	     -0.47706093	      3.45617254	     10.18112552	     -5.35795107	    -20.98513855	     -7.58579306	     11.15208233	     -4.02852376	    -17.19021538	     -2.29964422	     50.85298902	     89.95437384	      0.00000000	      0.00000000	    -14.10344817	     10.74391337	     18.07353542	     11.91374500	     89.95437384	      0.00000000	      0.00000000
      0.21000000	     14.25016244	      2.52343195	     -9.70030061	     -0.27109447	      0.92308135	      1.45948205	    -22.79998371	    -11.51175774	     -2.06264028	    -48.58754125	     -0.84801257	    -28.05337517	    -15.59878311	     15.56175384	      9.37558873	     -1.87436768	     17.01104577	    -27.26412482	     -0.47584875	      4.35209821	     10.20806759	     -5.43377170	    -20.98966155	     -7.83718537	     10.54745550	     -4.29839891	    -17.00010046	     -1.84233329	     49.70322568	     89.95437384	      0.00000000	      0.00000000	    -13.97224525	     10.56035696	     17.56469755	     12.56146444	     89.95437384	      0.00000000	      0.00000000
      0.22000000	     14.29968064	      2.63269895	     -9.35791971	     -0.25521975	      0.92496053	      1.45832581	    -21.20427395	    -11.25629955	     -1.62456924	    -51.31199979	     -0.89556334	    -26.75401880	    -17.11513322	     15.70126359	      8.35213149	     -2.36416873	     16.57462202	    -27.38651474	     -0.47798485	      5.16134826	      9.97648682	     -5.42172593	    -21.08430445	     -7.85150264	      9.82055919	     -4.53284609	    -16.79123761	     -1.33994030	     48.44078035	     89.95437384	      0.00000000	      0.00000000	    -13.69777781	     10.48188859	     16.84724939	     13.38489192	     89.95437384	      0.00000000	      0.00000000
      0.23000000	     14.18752810	      2.71321308	     -9.18038854	     -0.23976878	      0.92658680	      1.45727340	    -19.28912632	    -11.05653692	     -1.12359367	    -53.99132860	     -0.94232645	    -22.69696417	    -17.01127514	     16.45259797	      7.49404378	     -2.77927723	     16.18010561	    -27.56185709	     -0.48104515	      6.15249584	     10.35551269	     -5.30197534	    -20.98922298	     -7.81758384	      9.29707592	     -4.74589019	    -16.61912804	     -0.83768490	     47.04164932	     89.95437384	      0.00000000	      0.00000000	    -13.40089433	     10.48787210	     14.95196302	     14.26627651	     89.95437384	      0.00000000	      0.00000000
      0.24000000	     14.73781076	      2.63517463	     -9.04635819	     -0.22404844	      0.92951538	      1.45639657	    -18.34978458	    -10.64484322	     -0.43024116	    -55.85479881	     -0.97485014	    -18.48152697	    -16.47582100	     16.15521399	      5.59008925	     -3.09329036	     16.03465093	    -27.26199138	     -0.47581151	      7.09572314	     10.10408946	     -5.23668039	    -21.62846154	     -7.72509935	      8.66809697	     -4.87138878	    -16.44058388	     -0.28601345	     45.62134552	     89.95437384	      0.00000000	      0.00000000	    -12.75442878	     10.38128746	     14.06286742	     14.65790738	     89.95437384	      0.00000000	      0.00000000
      0.25000000	     15.36291802	      2.52156465	     -8.85961891	     -0.20838429	      0.93275610	      1.45547299	    -17.43641862	    -10.16482920	      0.19570925	    -57.26903590	     -0.99953324	    -15.46673435	    -16.02080764	     15.81050483	      3.43920454	     -3.39371067	     15.86763986	    -26.63106619	     -0.46479979	      7.84758702	      9.73926024	     -5.17989543	    -22.37099060	     -7.58429955	      8.06450532	     -5.06283751	    -16.20980166	      0.08392359	     44.14229667	     89.95437384	      0.00000000	      0.00000000	    -12.05137173	     10.34139302	     12.78661126	     15.16118365	     89.95437384	      0.00000000	      0.00000000
      0.26000000	     15.73705572	      2.30535018	     -8.54566217	     -0.19308812	      0.93577269	      1.45461286	    -16.19395511	     -9.41907341	      0.74706172	    -58.35014553	     -1.01840216	    -13.57901265	    -16.16073655	     15.40368891	      1.60310288	     -3.49072776	     15.67553686	    -26.07681266	     -0.45512624	      8.52501934	      9.33486132	     -5.14469079	    -22.87017539	     -7.28276944	      7.39371874	     -5.19934600	    -15.89646136	      0.42374903	     42.39155508	     89.95437384	      0.00000000	      0.00000000	    -11.06745446	     10.27540052	     12.04896859	     15.28154185	     89.95437384	      0.00000000	      0.00000000
      0.27000000	     16.00997758	      2.04513275	     -8.08062185	     -0.17816921	      0.93857021	      1.45345321	    -14.70839041	     -8.78633531	      0.68414190	    -59.33638233	     -1.03561524	    -12.42391248	    -16.04072643	     14.99886206	     -0.00617062	     -3.39826754	     15.79480418	    -25.68550605	     -0.44829665	      8.89758012	      9.07134842	     -5.07033102	    -23.35714389	     -6.83308089	      6.56171581	     -5.54042236	    -15.64857700	      0.57638235	     41.18949628	     89.95437384	      0.00000000	      0.00000000	    -10.04211816	     10.17357771	     11.54411078	     15.54333028	     89.95437384	      0.00000000	      0.00000000
      0.28000000	     16.34533585	      1.64452989	     -7.84233725	     -0.16270394	      0.94176133	      1.45288221	    -13.62476501	     -7.73567108	      1.34846231	    -59.59667303	     -1.04015817	     -9.65250095	    -15.98094157	     14.52209757	     -2.11290136	     -3.37789621	     15.17815238	    -24.54125342	     -0.42832567	      9.64337572	      8.55355234	     -5.07814468	    -23.69765770	     -6.36094639	      6.09806415	     -5.67020164	    -15.28496071	      0.76768146	     39.06747264	     89.95437384	      0.00000000	      0.00000000	     -8.92638462	     10.18816718	     10.36659486	     15.52229729	     89.95437384	      0.00000000	      0.00000000
